<svg xmlns="http://www.w3.org/2000/svg" width="1280" height="800" viewBox="0 0 1280 800">
  <defs>
    <linearGradient id="bg" x1="0%" y1="0%" x2="100%" y2="100%">
      <stop offset="0%" style="stop-color:#6366F1;stop-opacity:0.15"/>
      <stop offset="100%" style="stop-color:#818CF8;stop-opacity:0.05"/>
    </linearGradient>
  </defs>
  <rect width="1280" height="800" fill="url(#bg)"/>
  <rect x="0" y="0" width="1280" height="48" fill="#1E1E2E" opacity="0.9"/>
  <text x="24" y="32" font-family="system-ui" font-size="16" fill="#E2E8F0" font-weight="600">Frappe Visual — Workspace Dashboard</text>
  <rect x="0" y="48" width="240" height="752" fill="#1E1E2E" opacity="0.6"/>
  <text x="24" y="88" font-family="system-ui" font-size="13" fill="#94A3B8">NAVIGATION</text>
  <text x="24" y="116" font-family="system-ui" font-size="14" fill="#E2E8F0">Visual Hub</text>
  <text x="24" y="144" font-family="system-ui" font-size="14" fill="#E2E8F0">Gallery</text>
  <text x="24" y="172" font-family="system-ui" font-size="14" fill="#818CF8">Developer Console</text>
  <text x="24" y="200" font-family="system-ui" font-size="14" fill="#E2E8F0">API Tester</text>
  <!-- Scene Header -->
  <rect x="260" y="68" width="1000" height="200" rx="12" fill="#1E1E2E" opacity="0.8"/>
  <text x="290" y="108" font-family="system-ui" font-size="20" fill="#E2E8F0" font-weight="700">Scene Dashboard</text>
  <rect x="290" y="130" width="200" height="100" rx="8" fill="#6366F1" opacity="0.2"/>
  <text x="320" y="170" font-family="system-ui" font-size="24" fill="#6366F1" font-weight="700">307+</text>
  <text x="320" y="210" font-family="system-ui" font-size="12" fill="#94A3B8">Components</text>
  <rect x="510" y="130" width="200" height="100" rx="8" fill="#10B981" opacity="0.2"/>
  <text x="540" y="170" font-family="system-ui" font-size="24" fill="#10B981" font-weight="700">10</text>
  <text x="540" y="210" font-family="system-ui" font-size="12" fill="#94A3B8">Tiers</text>
  <rect x="730" y="130" width="200" height="100" rx="8" fill="#F59E0B" opacity="0.2"/>
  <text x="760" y="170" font-family="system-ui" font-size="24" fill="#F59E0B" font-weight="700">31</text>
  <text x="760" y="210" font-family="system-ui" font-size="12" fill="#94A3B8">Waves</text>
  <rect x="950" y="130" width="200" height="100" rx="8" fill="#EF4444" opacity="0.2"/>
  <text x="980" y="170" font-family="system-ui" font-size="24" fill="#EF4444" font-weight="700">5000+</text>
  <text x="980" y="210" font-family="system-ui" font-size="12" fill="#94A3B8">Icons</text>
  <!-- Shortcut Cards -->
  <rect x="260" y="290" width="320" height="120" rx="12" fill="#1E1E2E" opacity="0.7"/>
  <text x="290" y="330" font-family="system-ui" font-size="16" fill="#E2E8F0" font-weight="600">Graph Engine</text>
  <text x="290" y="360" font-family="system-ui" font-size="13" fill="#94A3B8">Core visualization engine with 9 ELK.js</text>
  <text x="290" y="380" font-family="system-ui" font-size="13" fill="#94A3B8">layout algorithms</text>
  <rect x="600" y="290" width="320" height="120" rx="12" fill="#1E1E2E" opacity="0.7"/>
  <text x="630" y="330" font-family="system-ui" font-size="16" fill="#E2E8F0" font-weight="600">Scene Engine</text>
  <text x="630" y="360" font-family="system-ui" font-size="13" fill="#94A3B8">Immersive SVG rooms with animated</text>
  <text x="630" y="380" font-family="system-ui" font-size="13" fill="#94A3B8">KPI frames and presets</text>
  <rect x="940" y="290" width="320" height="120" rx="12" fill="#1E1E2E" opacity="0.7"/>
  <text x="970" y="330" font-family="system-ui" font-size="16" fill="#E2E8F0" font-weight="600">Auto-Enhancers</text>
  <text x="970" y="360" font-family="system-ui" font-size="13" fill="#94A3B8">Form, List, and Workspace</text>
  <text x="970" y="380" font-family="system-ui" font-size="13" fill="#94A3B8">auto-enrichment on every page</text>
  <text x="640" y="760" font-family="system-ui" font-size="11" fill="#64748B" text-anchor="middle">frappe_visual v0.1.0 • Arkan Lab</text>
</svg>
